<svg width="122" height="84" viewBox="0 0 122 84" fill="none" xmlns="http://www.w3.org/2000/svg">
<path d="M77.7264 -1.07164C37.0274 19.2417 4.75587 45.1792 5.65994 56.8572C6.56393 68.5341 40.301 61.5272 81 41.2139C57.4211 47.7992 43.1557 46.7829 42.5117 38.4641C41.8677 30.1454 54.9203 15.4967 77.7264 -1.07164Z" fill="#2A2A2A" fill-opacity="0.6"/>
<path d="M66.5126 1.93282C29.9803 21.0564 1.55609 45.5971 3.03798 56.7421C4.51973 67.8861 35.3462 61.412 71.8785 42.2885C50.427 48.4236 37.1725 47.3655 36.1168 39.4264C35.0612 31.4873 46.328 17.5953 66.5126 1.93282Z" fill="#0000BF"/>
<path d="M56.8718 83.3439C92.6369 62.9871 120.551 37.261 119.206 25.8873C117.862 14.5147 87.7698 21.8034 52.0048 42.1602C72.9601 35.42 85.8648 36.2177 86.8223 44.3197C87.7798 52.4217 76.6781 66.8809 56.8718 83.3439Z" fill="#2A2A2A" fill-opacity="0.6"/>
<path d="M54.5237 80.0435C87.2893 60.0889 112.736 34.9747 111.348 23.9535C109.961 12.9335 82.2657 20.1819 49.5001 40.1365C68.7647 33.4748 80.6917 34.1709 81.68 42.0218C82.6683 49.8726 72.6023 63.9604 54.5237 80.0435Z" fill="#FF7F00"/>
</svg>
